<?xml version="1.0" encoding="UTF-8"?>
<!DOCTYPE svg PUBLIC "-//W3C//DTD SVG 1.1//EN" "http://www.w3.org/Graphics/SVG/1.1/DTD/svg11.dtd">
<svg xmlns="http://www.w3.org/2000/svg" version="1.1" width="500px" height="500px" style="shape-rendering:geometricPrecision; text-rendering:geometricPrecision; image-rendering:optimizeQuality; fill-rule:evenodd; clip-rule:evenodd; object-fit: center; background-size: cover; object-position: center;" xmlns:xlink="http://www.w3.org/1999/xlink">
<g><path style="opacity:1" fill="#f9bc0d" d="M -0.5,-0.5 C 166.167,-0.5 332.833,-0.5 499.5,-0.5C 499.5,166.167 499.5,332.833 499.5,499.5C 332.833,499.5 166.167,499.5 -0.5,499.5C -0.5,332.833 -0.5,166.167 -0.5,-0.5 Z"/></g>
<g><path style="opacity:1" fill="#3b0f4b" d="M 240.5,114.5 C 253.557,113.076 265.557,115.91 276.5,123C 279.614,126.06 282.114,129.56 284,133.5C 286.833,130.667 289.667,127.833 292.5,125C 295.634,124.21 298.634,124.543 301.5,126C 302.833,129.667 304.167,133.333 305.5,137C 309.167,137.333 312.833,137.667 316.5,138C 322.997,151.836 328.83,166.003 334,180.5C 335.392,184.22 334.225,186.22 330.5,186.5C 330.666,192.509 330.499,198.509 330,204.5C 328.972,207.886 326.972,210.552 324,212.5C 323.5,242.832 323.333,273.165 323.5,303.5C 332.506,303.334 341.506,303.5 350.5,304C 352.527,305.396 352.86,307.062 351.5,309C 283.5,309.667 215.5,309.667 147.5,309C 146.14,307.062 146.473,305.396 148.5,304C 157.494,303.5 166.494,303.334 175.5,303.5C 175.667,273.165 175.5,242.832 175,212.5C 171.204,210.259 168.871,206.926 168,202.5C 167.829,197.136 167.329,191.802 166.5,186.5C 163.127,184.959 162.627,182.626 165,179.5C 170.5,165.833 176,152.167 181.5,138.5C 185.5,137.833 189.5,137.167 193.5,136.5C 193.977,135.522 194.643,134.689 195.5,134C 195.011,125.194 199.011,122.528 207.5,126C 210.017,128.349 212.35,130.849 214.5,133.5C 220.374,123.24 229.041,116.907 240.5,114.5 Z"/></g>
<g><path style="opacity:1" fill="#edb21f" d="M 274.5,130.5 C 262.158,123.448 249.491,122.781 236.5,128.5C 234.742,128.123 233.075,127.456 231.5,126.5C 230.167,125.833 230.167,125.167 231.5,124.5C 247.231,117.676 261.564,119.676 274.5,130.5 Z"/></g>
<g><path style="opacity:1" fill="#fcf9f7" d="M 274.5,130.5 C 279.263,135.978 279.763,141.978 276,148.5C 275.311,149.357 274.478,150.023 273.5,150.5C 270.769,148.808 268.102,147.142 265.5,145.5C 265.315,140.794 263.315,137.127 259.5,134.5C 254.351,127.836 248.185,126.836 241,131.5C 239.019,131.101 237.519,130.101 236.5,128.5C 249.491,122.781 262.158,123.448 274.5,130.5 Z"/></g>
<g><path style="opacity:1" fill="#cf951f" d="M 206.5,134.5 C 206.167,134.5 205.833,134.5 205.5,134.5C 204.279,133.972 203.113,133.305 202,132.5C 201.312,131.668 201.479,131.002 202.5,130.5C 204.188,131.521 205.521,132.855 206.5,134.5 Z"/></g>
<g><path style="opacity:1" fill="#f1b720" d="M 237.5,138.5 C 234.78,137.058 231.946,135.725 229,134.5C 227.311,135.858 225.978,137.525 225,139.5C 224.421,143.203 224.588,146.869 225.5,150.5C 223.066,149.229 221.566,147.229 221,144.5C 219.993,139.889 220.66,135.555 223,131.5C 224.049,130.483 225.216,130.316 226.5,131C 230.936,132.641 234.603,135.141 237.5,138.5 Z"/></g>
<g><path style="opacity:1" fill="#fcfaf8" d="M 237.5,138.5 C 237.34,143.996 239.673,147.996 244.5,150.5C 247.554,155.122 251.888,156.622 257.5,155C 258.966,154.365 260.3,153.531 261.5,152.5C 263.029,153.763 264.695,154.763 266.5,155.5C 263.79,157.108 260.79,158.275 257.5,159C 249.337,160.05 241.337,159.383 233.5,157C 230.213,155.533 227.546,153.366 225.5,150.5C 224.588,146.869 224.421,143.203 225,139.5C 225.978,137.525 227.311,135.858 229,134.5C 231.946,135.725 234.78,137.058 237.5,138.5 Z"/></g>
<g><path style="opacity:1" fill="#f1b61a" d="M 254.5,139.5 C 250.167,139.167 248.167,141.167 248.5,145.5C 244.18,143.067 243.514,139.901 246.5,136C 250.506,134.579 253.172,135.746 254.5,139.5 Z"/></g>
<g><path style="opacity:1" fill="#e4aa2a" d="M 292.5,142.5 C 291.833,142.833 291.167,143.167 290.5,143.5C 289.038,142.542 287.705,141.376 286.5,140C 289.5,137 292.5,134 295.5,131C 296.332,130.312 296.998,130.479 297.5,131.5C 296.653,132.845 295.487,133.845 294,134.5C 293.333,135.833 293.333,137.167 294,138.5C 295.825,139.103 297.659,139.77 299.5,140.5C 297.031,141.168 294.698,141.835 292.5,142.5 Z"/></g>
<g><path style="opacity:1" fill="#dfa737" d="M 205.5,136.5 C 208.804,137.144 210.138,139.144 209.5,142.5C 208.527,144.139 207.194,145.473 205.5,146.5C 205.5,144.833 205.5,143.167 205.5,141.5C 197.103,141.151 196.77,140.151 204.5,138.5C 204.863,137.817 205.196,137.15 205.5,136.5 Z"/></g>
<g><path style="opacity:1" fill="#ebb433" d="M 259.5,134.5 C 263.315,137.127 265.315,140.794 265.5,145.5C 263.956,145.297 262.622,144.63 261.5,143.5C 260.647,140.522 259.981,137.522 259.5,134.5 Z"/></g>
<g><path style="opacity:1" fill="#e7d8c7" d="M 205.5,134.5 C 205.833,134.5 206.167,134.5 206.5,134.5C 208.63,136.127 210.63,137.96 212.5,140C 211.627,141.045 210.627,141.878 209.5,142.5C 210.138,139.144 208.804,137.144 205.5,136.5C 205.5,135.833 205.5,135.167 205.5,134.5 Z"/></g>
<g><path style="opacity:1" fill="#f7f3f1" d="M 254.5,139.5 C 254.167,143.167 252.167,145.167 248.5,145.5C 248.167,141.167 250.167,139.167 254.5,139.5 Z"/></g>
<g><path style="opacity:1" fill="#f1b314" d="M 194.5,147.5 C 192.833,147.5 191.167,147.5 189.5,147.5C 185.778,158.608 181.778,169.608 177.5,180.5C 175.396,180.799 173.396,180.466 171.5,179.5C 176.443,167.946 181.11,156.279 185.5,144.5C 188.106,143.348 190.773,143.182 193.5,144C 194.337,145.011 194.67,146.178 194.5,147.5 Z"/></g>
<g><path style="opacity:1" fill="#f9f4e8" d="M 292.5,142.5 C 292.5,143.5 292.5,144.5 292.5,145.5C 291.5,145.167 290.833,144.5 290.5,143.5C 291.167,143.167 291.833,142.833 292.5,142.5 Z"/></g>
<g><path style="opacity:1" fill="#f3b412" d="M 313.5,146.5 C 308.212,147.518 306.046,150.851 307,156.5C 302.624,161.7 298.457,161.7 294.5,156.5C 301.386,156.111 304.553,152.444 304,145.5C 306.826,143.66 309.993,142.994 313.5,143.5C 313.5,144.5 313.5,145.5 313.5,146.5 Z"/></g>
<g><path style="opacity:1" fill="#bfa39f" d="M 292.5,145.5 C 294.305,146.237 295.971,147.237 297.5,148.5C 296.998,149.521 296.332,149.688 295.5,149C 293.937,148.241 292.937,147.074 292.5,145.5 Z"/></g>
<g><path style="opacity:1" fill="#fa5022" d="M 313.5,146.5 C 317.985,157.65 322.652,168.817 327.5,180C 277.501,180.5 227.501,180.667 177.5,180.5C 181.778,169.608 185.778,158.608 189.5,147.5C 191.167,147.5 192.833,147.5 194.5,147.5C 194.932,151.59 196.932,154.59 200.5,156.5C 202.087,160.056 204.754,161.222 208.5,160C 211.665,157.665 214.665,155.165 217.5,152.5C 220.167,154.833 222.833,157.167 225.5,159.5C 229.612,164.402 234.945,167.569 241.5,169C 258.327,172.671 272.827,168.504 285,156.5C 286.122,154.593 286.955,152.593 287.5,150.5C 289.833,152.5 292.167,154.5 294.5,156.5C 298.457,161.7 302.624,161.7 307,156.5C 306.046,150.851 308.212,147.518 313.5,146.5 Z"/></g>
<g><path style="opacity:1" fill="#d99f1b" d="M 205.5,146.5 C 204.678,148.728 203.345,149.395 201.5,148.5C 202.577,147.295 203.91,146.628 205.5,146.5 Z"/></g>
<g><path style="opacity:1" fill="#f2b213" d="M 287.5,150.5 C 286.955,152.593 286.122,154.593 285,156.5C 272.827,168.504 258.327,172.671 241.5,169C 234.945,167.569 229.612,164.402 225.5,159.5C 241.848,168.857 258.181,168.691 274.5,159C 278.422,155.585 281.756,151.751 284.5,147.5C 285.855,148.188 286.855,149.188 287.5,150.5 Z"/></g>
<g><path style="opacity:1" fill="#f5b60f" d="M 217.5,152.5 C 214.665,155.165 211.665,157.665 208.5,160C 204.754,161.222 202.087,160.056 200.5,156.5C 202.655,156.628 204.655,156.128 206.5,155C 209.016,152.317 211.683,149.817 214.5,147.5C 215.952,148.94 216.952,150.606 217.5,152.5 Z"/></g>
<g><path style="opacity:1" fill="#edb31e" d="M 266.5,155.5 C 264.695,154.763 263.029,153.763 261.5,152.5C 260.3,153.531 258.966,154.365 257.5,155C 251.888,156.622 247.554,155.122 244.5,150.5C 249.151,152.073 253.485,151.407 257.5,148.5C 261.167,150.667 264.833,152.833 268.5,155C 267.906,155.464 267.239,155.631 266.5,155.5 Z"/></g>
<g><path style="opacity:1" fill="#f1b212" d="M 190.5,190.5 C 186.5,190.5 182.5,190.5 178.5,190.5C 178.821,196.026 178.488,201.36 177.5,206.5C 176.21,205.942 175.377,204.942 175,203.5C 174.501,197.843 174.334,192.176 174.5,186.5C 179.833,186.5 185.167,186.5 190.5,186.5C 190.5,187.833 190.5,189.167 190.5,190.5 Z"/></g>
<g><path style="opacity:1" fill="#c68d1e" d="M 212.5,187.5 C 207.5,187.5 202.5,187.5 197.5,187.5C 197.5,192.5 197.5,197.5 197.5,202.5C 196.512,197.36 196.179,192.026 196.5,186.5C 202.026,186.179 207.36,186.512 212.5,187.5 Z"/></g>
<g><path style="opacity:1" fill="#f9bc0d" d="M 212.5,187.5 C 212.5,188.5 212.5,189.5 212.5,190.5C 208.5,190.5 204.5,190.5 200.5,190.5C 200.5,195.833 200.5,201.167 200.5,206.5C 198.738,205.738 197.738,204.404 197.5,202.5C 197.5,197.5 197.5,192.5 197.5,187.5C 202.5,187.5 207.5,187.5 212.5,187.5 Z"/></g>
<g><path style="opacity:1" fill="#a0612e" d="M 234.5,201.5 C 234.5,197.833 234.5,194.167 234.5,190.5C 234.5,189.5 234.5,188.5 234.5,187.5C 229.5,187.5 224.5,187.5 219.5,187.5C 219.5,192.5 219.5,197.5 219.5,202.5C 218.512,197.36 218.179,192.026 218.5,186.5C 224.167,186.5 229.833,186.5 235.5,186.5C 235.821,191.695 235.487,196.695 234.5,201.5 Z"/></g>
<g><path style="opacity:1" fill="#f8b410" d="M 234.5,190.5 C 230.833,190.5 227.167,190.5 223.5,190.5C 223.5,196.167 223.5,201.833 223.5,207.5C 221.413,206.415 220.08,204.749 219.5,202.5C 219.5,197.5 219.5,192.5 219.5,187.5C 224.5,187.5 229.5,187.5 234.5,187.5C 234.5,188.5 234.5,189.5 234.5,190.5 Z"/></g>
<g><path style="opacity:1" fill="#f1b412" d="M 257.5,190.5 C 253.5,190.5 249.5,190.5 245.5,190.5C 245.5,195.833 245.5,201.167 245.5,206.5C 243.589,206.426 242.422,205.426 242,203.5C 241.501,197.843 241.334,192.176 241.5,186.5C 246.833,186.5 252.167,186.5 257.5,186.5C 257.5,187.833 257.5,189.167 257.5,190.5 Z"/></g>
<g><path style="opacity:1" fill="#c38a1f" d="M 279.5,187.5 C 274.5,187.5 269.5,187.5 264.5,187.5C 264.5,192.5 264.5,197.5 264.5,202.5C 263.512,197.36 263.179,192.026 263.5,186.5C 269.026,186.179 274.36,186.512 279.5,187.5 Z"/></g>
<g><path style="opacity:1" fill="#f9bc0d" d="M 279.5,187.5 C 279.5,188.5 279.5,189.5 279.5,190.5C 275.5,190.5 271.5,190.5 267.5,190.5C 267.5,195.833 267.5,201.167 267.5,206.5C 265.738,205.738 264.738,204.404 264.5,202.5C 264.5,197.5 264.5,192.5 264.5,187.5C 269.5,187.5 274.5,187.5 279.5,187.5 Z"/></g>
<g><path style="opacity:1" fill="#f2b212" d="M 302.5,190.5 C 298.5,190.5 294.5,190.5 290.5,190.5C 290.821,196.026 290.488,201.36 289.5,206.5C 288.21,205.942 287.377,204.942 287,203.5C 286.501,197.843 286.334,192.176 286.5,186.5C 291.833,186.5 297.167,186.5 302.5,186.5C 302.5,187.833 302.5,189.167 302.5,190.5 Z"/></g>
<g><path style="opacity:1" fill="#f3b610" d="M 324.5,190.5 C 320.5,190.5 316.5,190.5 312.5,190.5C 312.5,195.833 312.5,201.167 312.5,206.5C 310.827,205.657 309.66,204.324 309,202.5C 308.501,197.177 308.334,191.844 308.5,186.5C 313.833,186.5 319.167,186.5 324.5,186.5C 324.5,187.833 324.5,189.167 324.5,190.5 Z"/></g>
<g><path style="opacity:1" fill="#f64f23" d="M 190.5,190.5 C 190.879,195.297 190.379,199.964 189,204.5C 185.608,208.749 181.775,209.416 177.5,206.5C 178.488,201.36 178.821,196.026 178.5,190.5C 182.5,190.5 186.5,190.5 190.5,190.5 Z"/></g>
<g><path style="opacity:1" fill="#fb5222" d="M 212.5,190.5 C 212.888,195.628 212.388,200.628 211,205.5C 207.553,207.622 204.053,207.955 200.5,206.5C 200.5,201.167 200.5,195.833 200.5,190.5C 204.5,190.5 208.5,190.5 212.5,190.5 Z"/></g>
<g><path style="opacity:1" fill="#fc5122" d="M 234.5,190.5 C 234.5,194.167 234.5,197.833 234.5,201.5C 234.607,203.903 233.607,205.736 231.5,207C 228.854,207.497 226.187,207.664 223.5,207.5C 223.5,201.833 223.5,196.167 223.5,190.5C 227.167,190.5 230.833,190.5 234.5,190.5 Z"/></g>
<g><path style="opacity:1" fill="#fa5022" d="M 257.5,190.5 C 257.879,195.297 257.379,199.964 256,204.5C 252.893,207.573 249.393,208.239 245.5,206.5C 245.5,201.167 245.5,195.833 245.5,190.5C 249.5,190.5 253.5,190.5 257.5,190.5 Z"/></g>
<g><path style="opacity:1" fill="#fc5421" d="M 279.5,190.5 C 279.888,195.628 279.388,200.628 278,205.5C 274.553,207.622 271.053,207.955 267.5,206.5C 267.5,201.167 267.5,195.833 267.5,190.5C 271.5,190.5 275.5,190.5 279.5,190.5 Z"/></g>
<g><path style="opacity:1" fill="#f95023" d="M 302.5,190.5 C 302.879,195.297 302.379,199.964 301,204.5C 297.547,207.604 293.713,208.27 289.5,206.5C 290.488,201.36 290.821,196.026 290.5,190.5C 294.5,190.5 298.5,190.5 302.5,190.5 Z"/></g>
<g><path style="opacity:1" fill="#fc5221" d="M 324.5,190.5 C 324.879,195.297 324.379,199.964 323,204.5C 319.893,207.573 316.393,208.239 312.5,206.5C 312.5,201.167 312.5,195.833 312.5,190.5C 316.5,190.5 320.5,190.5 324.5,190.5 Z"/></g>
<g><path style="opacity:1" fill="#f0b414" d="M 198.5,213.5 C 196.456,214.031 194.789,215.198 193.5,217C 190.937,218.079 188.271,218.579 185.5,218.5C 185.5,246.833 185.5,275.167 185.5,303.5C 184.167,303.5 182.833,303.5 181.5,303.5C 181.5,273.833 181.5,244.167 181.5,214.5C 186.183,214.493 190.183,212.826 193.5,209.5C 195.21,210.887 196.877,212.221 198.5,213.5 Z"/></g>
<g><path style="opacity:1" fill="#f4b91d" d="M 220.5,213.5 C 215.988,217.724 210.655,219.224 204.5,218C 201.894,217.208 199.894,215.708 198.5,213.5C 204.994,215.647 210.661,214.314 215.5,209.5C 217.419,210.612 219.086,211.946 220.5,213.5 Z"/></g>
<g><path style="opacity:1" fill="#f4ba1c" d="M 265.5,213.5 C 257.659,220.127 249.826,220.127 242,213.5C 237.689,217.825 232.523,219.325 226.5,218C 223.894,217.208 221.894,215.708 220.5,213.5C 227.282,215.58 233.282,214.247 238.5,209.5C 245.833,216.167 253.167,216.167 260.5,209.5C 262.21,210.887 263.877,212.221 265.5,213.5 Z"/></g>
<g><path style="opacity:1" fill="#f5ba1c" d="M 287.5,213.5 C 282.988,217.724 277.655,219.224 271.5,218C 268.894,217.208 266.894,215.708 265.5,213.5C 272.126,215.625 277.959,214.292 283,209.5C 284.667,210.733 286.167,212.067 287.5,213.5 Z"/></g>
<g><path style="opacity:1" fill="#f4ba1f" d="M 316.5,214.5 C 316.5,215.5 316.5,216.5 316.5,217.5C 313.685,216.874 311.185,215.54 309,213.5C 301.718,220.152 294.551,220.152 287.5,213.5C 294.282,215.58 300.282,214.247 305.5,209.5C 308.559,212.53 312.226,214.197 316.5,214.5 Z"/></g>
<g><path style="opacity:1" fill="#fdfbfb" d="M 198.5,213.5 C 199.894,215.708 201.894,217.208 204.5,218C 210.655,219.224 215.988,217.724 220.5,213.5C 221.894,215.708 223.894,217.208 226.5,218C 232.523,219.325 237.689,217.825 242,213.5C 249.826,220.127 257.659,220.127 265.5,213.5C 266.894,215.708 268.894,217.208 271.5,218C 277.655,219.224 282.988,217.724 287.5,213.5C 294.551,220.152 301.718,220.152 309,213.5C 311.185,215.54 313.685,216.874 316.5,217.5C 316.5,216.5 316.5,215.5 316.5,214.5C 317.498,243.995 317.831,273.662 317.5,303.5C 294.167,303.5 270.833,303.5 247.5,303.5C 247.667,289.496 247.5,275.496 247,261.5C 245.556,257.589 243.389,254.256 240.5,251.5C 233.153,241.737 223.486,238.571 211.5,242C 203.965,245.557 199.132,251.39 197,259.5C 196.5,274.163 196.333,288.83 196.5,303.5C 192.833,303.5 189.167,303.5 185.5,303.5C 185.5,275.167 185.5,246.833 185.5,218.5C 188.271,218.579 190.937,218.079 193.5,217C 194.789,215.198 196.456,214.031 198.5,213.5 Z"/></g>
<g><path style="opacity:1" fill="#3a0e4a" d="M 301.5,246.5 C 301.832,259.517 301.499,272.517 300.5,285.5C 287.883,286.481 275.217,286.814 262.5,286.5C 260.983,286.489 259.816,285.823 259,284.5C 258.333,270.833 258.333,257.167 259,243.5C 272.758,242.344 286.592,242.177 300.5,243C 301.337,244.011 301.67,245.178 301.5,246.5 Z"/></g>
<g><path style="opacity:1" fill="#f5b511" d="M 232.5,252.5 C 221.318,248.286 213.151,251.619 208,262.5C 207.5,276.163 207.333,289.829 207.5,303.5C 206.167,303.5 204.833,303.5 203.5,303.5C 203.333,288.496 203.5,273.496 204,258.5C 211.31,245.153 220.81,243.153 232.5,252.5 Z"/></g>
<g><path style="opacity:1" fill="#f1b92d" d="M 301.5,246.5 C 303.39,246.297 304.89,246.963 306,248.5C 306.667,261.833 306.667,275.167 306,288.5C 305.5,289 305,289.5 304.5,290C 291.167,290.667 277.833,290.667 264.5,290C 263.177,289.184 262.511,288.017 262.5,286.5C 275.217,286.814 287.883,286.481 300.5,285.5C 301.499,272.517 301.832,259.517 301.5,246.5 Z"/></g>
<g><path style="opacity:1" fill="#e8ac18" d="M 295.5,252.5 C 286.5,252.5 277.5,252.5 268.5,252.5C 268.5,261.5 268.5,270.5 268.5,279.5C 267.167,279.5 265.833,279.5 264.5,279.5C 264.5,269.167 264.5,258.833 264.5,248.5C 274.833,248.5 285.167,248.5 295.5,248.5C 295.5,249.833 295.5,251.167 295.5,252.5 Z"/></g>
<g><path style="opacity:1" fill="#fb5022" d="M 232.5,252.5 C 234.746,254.649 236.246,257.316 237,260.5C 237.5,274.829 237.667,289.163 237.5,303.5C 227.5,303.5 217.5,303.5 207.5,303.5C 207.333,289.829 207.5,276.163 208,262.5C 213.151,251.619 221.318,248.286 232.5,252.5 Z"/></g>
<g><path style="opacity:1" fill="#fb5422" d="M 295.5,252.5 C 295.5,261.5 295.5,270.5 295.5,279.5C 286.5,279.5 277.5,279.5 268.5,279.5C 268.5,270.5 268.5,261.5 268.5,252.5C 277.5,252.5 286.5,252.5 295.5,252.5 Z"/></g>
<g><path style="opacity:1" fill="#3d0e49" d="M 286.5,259.5 C 287.942,262.22 289.275,265.054 290.5,268C 290.252,269.749 289.252,270.582 287.5,270.5C 285.983,270.489 284.816,269.823 284,268.5C 281.777,265.221 279.943,261.721 278.5,258C 278.862,256.115 280.029,255.281 282,255.5C 284.151,256.167 285.651,257.5 286.5,259.5 Z"/></g>
<g><path style="opacity:1" fill="#f0b418" d="M 240.5,251.5 C 243.389,254.256 245.556,257.589 247,261.5C 247.5,275.496 247.667,289.496 247.5,303.5C 246.167,303.5 244.833,303.5 243.5,303.5C 243.667,288.163 243.5,272.83 243,257.5C 241.878,255.593 241.045,253.593 240.5,251.5 Z"/></g>
<g><path style="opacity:1" fill="#430f48" d="M 277.5,268.5 C 278.084,271.285 277.084,272.952 274.5,273.5C 270.951,272.043 269.784,269.377 271,265.5C 272.049,264.483 273.216,264.316 274.5,265C 275.636,266.145 276.636,267.312 277.5,268.5 Z"/></g>
<g><path style="opacity:1" fill="#f3b112" d="M 286.5,259.5 C 290.842,263.183 293.342,267.85 294,273.5C 290.552,275.264 288.385,274.264 287.5,270.5C 289.252,270.582 290.252,269.749 290.5,268C 289.275,265.054 287.942,262.22 286.5,259.5 Z"/></g>
<g><path style="opacity:1" fill="#390d4a" d="M 229.5,273.5 C 229.662,275.527 229.495,277.527 229,279.5C 228.617,280.056 228.117,280.389 227.5,280.5C 226.178,280.67 225.011,280.337 224,279.5C 223.333,276.833 223.333,274.167 224,271.5C 226.811,269.82 228.644,270.487 229.5,273.5 Z"/></g>
<g><path style="opacity:1" fill="#f6b40f" d="M 277.5,268.5 C 280.575,270.317 281.741,272.984 281,276.5C 277.59,278.269 275.424,277.269 274.5,273.5C 277.084,272.952 278.084,271.285 277.5,268.5 Z"/></g>
<g><path style="opacity:1" fill="#f5b510" d="M 229.5,273.5 C 231.017,273.511 232.184,274.177 233,275.5C 233.667,278.167 233.667,280.833 233,283.5C 229.534,285.35 227.701,284.35 227.5,280.5C 228.117,280.389 228.617,280.056 229,279.5C 229.495,277.527 229.662,275.527 229.5,273.5 Z"/></g>
<g><path style="opacity:1" fill="#3d1049" d="M 297.5,329.5 C 302.711,329.016 307.378,330.349 311.5,333.5C 310.52,334.981 309.353,336.315 308,337.5C 303.522,333.269 299.522,333.602 296,338.5C 294.144,344.464 296.144,348.131 302,349.5C 304.406,349.297 306.406,348.297 308,346.5C 312.329,349.996 311.495,352.496 305.5,354C 291.128,354.626 286.295,348.126 291,334.5C 292.965,332.45 295.132,330.783 297.5,329.5 Z"/></g>
<g><path style="opacity:1" fill="#3b0f49" d="M 166.5,329.5 C 172.245,329.211 177.912,329.711 183.5,331C 188.712,335.963 188.712,340.963 183.5,346C 179.974,347.337 176.308,347.837 172.5,347.5C 172.5,349.833 172.5,352.167 172.5,354.5C 170.5,354.5 168.5,354.5 166.5,354.5C 166.5,346.167 166.5,337.833 166.5,329.5 Z"/></g>
<g><path style="opacity:1" fill="#390d4a" d="M 191.5,329.5 C 197.833,329.5 204.167,329.5 210.5,329.5C 210.5,331.167 210.5,332.833 210.5,334.5C 206.167,334.5 201.833,334.5 197.5,334.5C 197.5,336.167 197.5,337.833 197.5,339.5C 201.5,339.5 205.5,339.5 209.5,339.5C 209.5,341.167 209.5,342.833 209.5,344.5C 205.5,344.5 201.5,344.5 197.5,344.5C 197.5,346.167 197.5,347.833 197.5,349.5C 202.167,349.5 206.833,349.5 211.5,349.5C 211.5,351.167 211.5,352.833 211.5,354.5C 204.833,354.5 198.167,354.5 191.5,354.5C 191.5,346.167 191.5,337.833 191.5,329.5 Z"/></g>
<g><path style="opacity:1" fill="#3a0e49" d="M 216.5,329.5 C 223.061,328.919 229.395,329.752 235.5,332C 237.429,335.256 237.929,338.756 237,342.5C 236.363,344.303 235.197,345.636 233.5,346.5C 235.043,349.086 236.709,351.586 238.5,354C 233.039,355.922 229.706,354.089 228.5,348.5C 226.604,347.534 224.604,347.201 222.5,347.5C 222.5,349.833 222.5,352.167 222.5,354.5C 220.5,354.5 218.5,354.5 216.5,354.5C 216.5,346.167 216.5,337.833 216.5,329.5 Z"/></g>
<g><path style="opacity:1" fill="#3d1149" d="M 243.5,329.5 C 249.5,329.5 255.5,329.5 261.5,329.5C 261.5,331.167 261.5,332.833 261.5,334.5C 257.5,334.5 253.5,334.5 249.5,334.5C 249.5,336.5 249.5,338.5 249.5,340.5C 253.167,340.5 256.833,340.5 260.5,340.5C 260.5,342.167 260.5,343.833 260.5,345.5C 256.833,345.5 253.167,345.5 249.5,345.5C 249.5,348.5 249.5,351.5 249.5,354.5C 247.5,354.5 245.5,354.5 243.5,354.5C 243.5,346.167 243.5,337.833 243.5,329.5 Z"/></g>
<g><path style="opacity:1" fill="#390d4a" d="M 265.5,329.5 C 271.833,329.5 278.167,329.5 284.5,329.5C 284.5,331.167 284.5,332.833 284.5,334.5C 280.167,334.5 275.833,334.5 271.5,334.5C 271.5,336.167 271.5,337.833 271.5,339.5C 275.5,339.5 279.5,339.5 283.5,339.5C 283.5,341.167 283.5,342.833 283.5,344.5C 279.5,344.5 275.5,344.5 271.5,344.5C 271.5,346.167 271.5,347.833 271.5,349.5C 276.167,349.5 280.833,349.5 285.5,349.5C 285.5,351.167 285.5,352.833 285.5,354.5C 278.833,354.5 272.167,354.5 265.5,354.5C 265.5,346.167 265.5,337.833 265.5,329.5 Z"/></g>
<g><path style="opacity:1" fill="#390e4a" d="M 313.5,329.5 C 320.5,329.5 327.5,329.5 334.5,329.5C 334.5,331.167 334.5,332.833 334.5,334.5C 332.167,334.5 329.833,334.5 327.5,334.5C 327.5,341.167 327.5,347.833 327.5,354.5C 325.5,354.5 323.5,354.5 321.5,354.5C 321.5,347.833 321.5,341.167 321.5,334.5C 318.833,334.5 316.167,334.5 313.5,334.5C 313.5,332.833 313.5,331.167 313.5,329.5 Z"/></g>
<g><path style="opacity:1" fill="#ebb014" d="M 172.5,334.5 C 174.857,334.337 177.19,334.503 179.5,335C 182.167,337.333 182.167,339.667 179.5,342C 177.19,342.497 174.857,342.663 172.5,342.5C 172.5,339.833 172.5,337.167 172.5,334.5 Z"/></g>
<g><path style="opacity:1" fill="#edb114" d="M 222.5,334.5 C 224.857,334.337 227.19,334.503 229.5,335C 231.725,337.025 232.059,339.358 230.5,342C 227.854,342.497 225.187,342.664 222.5,342.5C 222.5,339.833 222.5,337.167 222.5,334.5 Z"/></g>
<g><path style="opacity:1" fill="#512244" d="M 194.5,365.5 C 196.256,366.552 196.923,368.219 196.5,370.5C 199.167,370.5 201.833,370.5 204.5,370.5C 204.215,368.712 204.548,367.045 205.5,365.5C 206.833,369.833 206.833,374.167 205.5,378.5C 204.534,376.604 204.201,374.604 204.5,372.5C 201.833,372.5 199.167,372.5 196.5,372.5C 196.799,374.604 196.466,376.604 195.5,378.5C 194.508,374.217 194.174,369.884 194.5,365.5 Z"/></g>
<g><path style="opacity:1" fill="#4b1d45" d="M 232.5,365.5 C 234.648,368.403 236.148,371.736 237,375.5C 238.265,372.539 239.431,369.539 240.5,366.5C 241.325,365.614 242.325,365.281 243.5,365.5C 244.812,376.146 246.812,376.646 249.5,367C 249.974,365.392 250.641,365.226 251.5,366.5C 250.221,370.672 248.555,374.672 246.5,378.5C 244.717,375.327 243.217,371.994 242,368.5C 240.142,371.572 238.976,374.905 238.5,378.5C 237.5,378.5 236.5,378.5 235.5,378.5C 234.707,374.12 233.707,369.786 232.5,365.5 Z"/></g>
<g><path style="opacity:1" fill="#4b1c45" d="M 257.5,365.5 C 260.518,365.335 263.518,365.502 266.5,366C 269.25,369.012 268.917,371.679 265.5,374C 266.257,375.512 267.257,376.846 268.5,378C 266.07,375.931 263.07,374.764 259.5,374.5C 259.762,375.978 259.429,377.311 258.5,378.5C 257.508,374.217 257.174,369.884 257.5,365.5 Z"/></g>
<g><path style="opacity:1" fill="#390d4a" d="M 326.5,378.5 C 327.069,374.671 326.402,371.337 324.5,368.5C 324.908,367.357 325.575,366.357 326.5,365.5C 327.811,369.984 327.811,374.317 326.5,378.5 Z"/></g>
<g><path style="opacity:1" fill="#edb114" d="M 259.5,366.5 C 262.641,365.908 264.974,366.908 266.5,369.5C 266.392,370.442 266.059,371.275 265.5,372C 263.527,372.495 261.527,372.662 259.5,372.5C 259.5,370.5 259.5,368.5 259.5,366.5 Z"/></g>
<g><path style="opacity:1" fill="#512243" d="M 324.5,368.5 C 326.402,371.337 327.069,374.671 326.5,378.5C 325.683,376.031 325.183,373.365 325,370.5C 323.732,372.717 322.232,374.717 320.5,376.5C 318.501,374.507 317.001,372.173 316,369.5C 315.821,372.553 315.321,375.553 314.5,378.5C 313.167,374.167 313.167,369.833 314.5,365.5C 316.655,368.462 318.821,371.462 321,374.5C 321.941,372.273 323.108,370.273 324.5,368.5 Z"/></g>
<g><path style="opacity:1" fill="#421547" d="M 277.5,365.5 C 286.805,364.951 289.472,368.785 285.5,377C 277.243,379.96 273.743,377.127 275,368.5C 276.045,367.627 276.878,366.627 277.5,365.5 Z"/></g>
<g><path style="opacity:1" fill="#e9ad18" d="M 278.5,366.5 C 285.745,366.555 287.745,369.722 284.5,376C 279.643,377.753 276.643,376.253 275.5,371.5C 276.092,369.577 277.092,367.911 278.5,366.5 Z"/></g>
<g><path style="opacity:1" fill="#502144" d="M 180.5,365.5 C 182.924,365.192 185.257,365.526 187.5,366.5C 185.761,366.594 183.761,366.761 181.5,367C 181.043,367.414 180.709,367.914 180.5,368.5C 183.528,370.014 186.195,372.014 188.5,374.5C 187.148,378.254 184.482,379.421 180.5,378C 179.692,377.692 179.025,377.192 178.5,376.5C 180.987,376.218 183.653,376.218 186.5,376.5C 186.719,375.325 186.386,374.325 185.5,373.5C 180.276,372.908 178.609,370.241 180.5,365.5 Z"/></g>
<g><path style="opacity:1" fill="#4e1f45" d="M 216.5,365.5 C 225.745,364.899 228.411,368.732 224.5,377C 216.901,380.05 213.067,377.55 213,369.5C 213.69,367.65 214.856,366.316 216.5,365.5 Z"/></g>
<g><path style="opacity:1" fill="#f0b413" d="M 217.5,366.5 C 224.632,366.789 226.298,369.956 222.5,376C 214.03,376.531 212.364,373.364 217.5,366.5 Z"/></g>
<g><path style="opacity:1" fill="#4e1f44" d="M 296.5,365.5 C 304.163,364.042 307.663,367.042 307,374.5C 303.644,378.948 299.644,379.615 295,376.5C 292.689,372.374 293.189,368.707 296.5,365.5 Z"/></g>
<g><path style="opacity:1" fill="#f0b413" d="M 298.5,366.5 C 305.297,367.107 306.964,370.274 303.5,376C 297,377.5 294.5,375 296,368.5C 296.995,367.934 297.828,367.267 298.5,366.5 Z"/></g>
</svg>
