<?xml version="1.0" encoding="UTF-8"?>
<!DOCTYPE svg PUBLIC "-//W3C//DTD SVG 1.1//EN" "http://www.w3.org/Graphics/SVG/1.1/DTD/svg11.dtd">
<svg xmlns="http://www.w3.org/2000/svg" version="1.1" width="505px" height="508px" style="shape-rendering:geometricPrecision; text-rendering:geometricPrecision; image-rendering:optimizeQuality; fill-rule:evenodd; clip-rule:evenodd" xmlns:xlink="http://www.w3.org/1999/xlink">
<g><path style="opacity:1" fill="#fef2df" d="M -0.5,-0.5 C 167.833,-0.5 336.167,-0.5 504.5,-0.5C 504.5,168.833 504.5,338.167 504.5,507.5C 336.167,507.5 167.833,507.5 -0.5,507.5C -0.5,338.167 -0.5,168.833 -0.5,-0.5 Z"/></g>
<g><path style="opacity:1" fill="#978f85" d="M 228.5,7.5 C 219.8,7.28948 211.133,7.62282 202.5,8.5C 203.263,7.73209 204.263,7.23209 205.5,7C 213.345,6.17767 221.011,6.34434 228.5,7.5 Z"/></g>
<g><path style="opacity:1" fill="#171614" d="M 228.5,7.5 C 242.794,7.65835 257.127,7.82501 271.5,8C 299.441,15.2697 318.608,32.4363 329,59.5C 332.153,76.0023 333.319,92.669 332.5,109.5C 332.5,121.5 332.5,133.5 332.5,145.5C 332.896,153.253 332.396,160.92 331,168.5C 325.924,173.756 320.924,173.756 316,168.5C 314.616,161.589 314.116,154.589 314.5,147.5C 314.5,134.833 314.5,122.167 314.5,109.5C 314.667,97.1622 314.5,84.8288 314,72.5C 308.624,48.1247 293.958,32.4581 270,25.5C 269.5,25.6667 269,25.8333 268.5,26C 281.494,38.1521 289.66,52.9854 293,70.5C 293.5,83.4957 293.667,96.4957 293.5,109.5C 287.833,109.5 282.167,109.5 276.5,109.5C 276.667,97.4954 276.5,85.4954 276,73.5C 272.756,56.2715 263.922,42.7715 249.5,33C 245.392,30.6123 241.059,28.779 236.5,27.5C 216.229,35.6003 203.729,50.2669 199,71.5C 198.5,84.1623 198.333,96.8289 198.5,109.5C 198.5,122.167 198.5,134.833 198.5,147.5C 198.884,154.589 198.384,161.589 197,168.5C 192,173.833 187,173.833 182,168.5C 180.604,160.92 180.104,153.253 180.5,145.5C 180.5,133.5 180.5,121.5 180.5,109.5C 180.333,97.8286 180.5,86.1619 181,74.5C 183.598,55.1337 192.098,38.967 206.5,26C 184.519,30.2849 169.686,43.1183 162,64.5C 159.718,79.3982 158.885,94.3982 159.5,109.5C 153.833,109.5 148.167,109.5 142.5,109.5C 142.333,96.4957 142.5,83.4957 143,70.5C 150.128,37.5401 169.962,16.8734 202.5,8.5C 211.133,7.62282 219.8,7.28948 228.5,7.5 Z"/></g>
<g><path style="opacity:1" fill="#fbefdc" d="M 314.5,109.5 C 307.5,109.5 300.5,109.5 293.5,109.5C 293.667,96.4957 293.5,83.4957 293,70.5C 289.66,52.9854 281.494,38.1521 268.5,26C 269,25.8333 269.5,25.6667 270,25.5C 293.958,32.4581 308.624,48.1247 314,72.5C 314.5,84.8288 314.667,97.1622 314.5,109.5 Z"/></g>
<g><path style="opacity:1" fill="#fbefdb" d="M 180.5,109.5 C 173.5,109.5 166.5,109.5 159.5,109.5C 158.885,94.3982 159.718,79.3982 162,64.5C 169.686,43.1183 184.519,30.2849 206.5,26C 192.098,38.967 183.598,55.1337 181,74.5C 180.5,86.1619 180.333,97.8286 180.5,109.5 Z"/></g>
<g><path style="opacity:1" fill="#fdf1de" d="M 276.5,109.5 C 250.5,109.5 224.5,109.5 198.5,109.5C 198.333,96.8289 198.5,84.1623 199,71.5C 203.729,50.2669 216.229,35.6003 236.5,27.5C 241.059,28.779 245.392,30.6123 249.5,33C 263.922,42.7715 272.756,56.2715 276,73.5C 276.5,85.4954 276.667,97.4954 276.5,109.5 Z"/></g>
<g><path style="opacity:1" fill="#f58215" d="M 121.5,109.5 C 113.817,112.351 108.65,117.684 106,125.5C 105.818,148.031 105.318,170.531 104.5,193C 104.997,246.651 105.164,300.818 105,355.5C 106.11,364.608 110.944,370.774 119.5,374C 109.172,374.5 98.8387,374.666 88.5,374.5C 79.0157,373.183 73.1824,367.85 71,358.5C 70.3333,280.833 70.3333,203.167 71,125.5C 73.5,117.667 78.6667,112.5 86.5,110C 98.1619,109.5 109.829,109.333 121.5,109.5 Z"/></g>
<g><path style="opacity:1" fill="#f9af22" d="M 121.5,109.5 C 128.5,109.5 135.5,109.5 142.5,109.5C 148.167,109.5 153.833,109.5 159.5,109.5C 166.5,109.5 173.5,109.5 180.5,109.5C 180.5,121.5 180.5,133.5 180.5,145.5C 172.48,149.146 168.48,155.48 168.5,164.5C 168.764,174.602 173.764,181.102 183.5,184C 194.326,185.503 202.16,181.336 207,171.5C 210.6,161.063 207.766,153.063 198.5,147.5C 198.5,134.833 198.5,122.167 198.5,109.5C 224.5,109.5 250.5,109.5 276.5,109.5C 282.167,109.5 287.833,109.5 293.5,109.5C 300.5,109.5 307.5,109.5 314.5,109.5C 314.5,122.167 314.5,134.833 314.5,147.5C 303.815,154.664 301.648,163.997 308,175.5C 320.461,188.033 332.127,187.366 343,173.5C 345.457,165.858 344.79,158.525 341,151.5C 338.751,148.629 335.918,146.629 332.5,145.5C 332.5,133.5 332.5,121.5 332.5,109.5C 351.836,109.333 371.17,109.5 390.5,110C 399.667,112.5 405.5,118.333 408,127.5C 410.215,204.823 411.548,282.156 412,359.5C 409.313,368.186 403.479,373.353 394.5,375C 292.333,375.833 190.333,375.666 88.5,374.5C 98.8387,374.666 109.172,374.5 119.5,374C 110.944,370.774 106.11,364.608 105,355.5C 105.164,300.818 104.997,246.651 104.5,193C 105.318,170.531 105.818,148.031 106,125.5C 108.65,117.684 113.817,112.351 121.5,109.5 Z"/></g>
<g><path style="opacity:1" fill="#f48112" d="M 180.5,145.5 C 180.104,153.253 180.604,160.92 182,168.5C 187,173.833 192,173.833 197,168.5C 198.384,161.589 198.884,154.589 198.5,147.5C 207.766,153.063 210.6,161.063 207,171.5C 202.16,181.336 194.326,185.503 183.5,184C 173.764,181.102 168.764,174.602 168.5,164.5C 168.48,155.48 172.48,149.146 180.5,145.5 Z"/></g>
<g><path style="opacity:1" fill="#f48112" d="M 332.5,145.5 C 335.918,146.629 338.751,148.629 341,151.5C 344.79,158.525 345.457,165.858 343,173.5C 332.127,187.366 320.461,188.033 308,175.5C 301.648,163.997 303.815,154.664 314.5,147.5C 314.116,154.589 314.616,161.589 316,168.5C 320.924,173.756 325.924,173.756 331,168.5C 332.396,160.92 332.896,153.253 332.5,145.5 Z"/></g>
<g><path style="opacity:1" fill="#fffefd" d="M 277.5,199.5 C 282.223,198.553 286.056,199.886 289,203.5C 301,224.833 313,246.167 325,267.5C 326.065,258.198 326.732,248.865 327,239.5C 328.851,233.988 332.684,231.655 338.5,232.5C 342.807,231.809 346.307,233.143 349,236.5C 349.218,263.026 348.385,289.526 346.5,316C 348.222,322.051 349.055,328.218 349,334.5C 334.671,344.079 319.838,352.746 304.5,360.5C 299.899,359.404 296.232,356.904 293.5,353C 287.437,350.271 282.603,346.104 279,340.5C 265.828,318.827 253.161,296.827 241,274.5C 239.431,266.641 242.598,261.974 250.5,260.5C 253.111,260.556 255.278,261.556 257,263.5C 256.92,255.747 260.753,251.747 268.5,251.5C 270.693,251.326 272.527,251.993 274,253.5C 274.883,245.622 279.383,241.455 287.5,241C 281.62,231.409 276.12,221.576 271,211.5C 270.333,209.5 270.333,207.5 271,205.5C 273.063,203.266 275.229,201.266 277.5,199.5 Z"/></g>
<g><path style="opacity:1" fill="#181716" d="M 326.5,404.5 C 327.833,403.167 329.167,403.167 330.5,404.5C 330.5,404.833 330.5,405.167 330.5,405.5C 329.512,410.64 329.179,415.974 329.5,421.5C 337.019,421.825 344.352,421.492 351.5,420.5C 351.334,414.158 351.5,407.825 352,401.5C 353.46,398.014 355.96,396.181 359.5,396C 357.667,397.167 356.167,398.667 355,400.5C 354.333,413.167 354.333,425.833 355,438.5C 356.067,439.191 357.234,439.691 358.5,440C 354.833,440.667 351.167,440.667 347.5,440C 348.766,439.691 349.933,439.191 351,438.5C 351.499,433.177 351.666,427.844 351.5,422.5C 344.5,422.5 337.5,422.5 330.5,422.5C 330.666,428.842 330.5,435.175 330,441.5C 328.961,445.55 326.461,447.717 322.5,448C 324.894,446.048 326.394,443.548 327,440.5C 327.811,428.424 327.645,416.424 326.5,404.5 Z"/></g>
<g><path style="opacity:1" fill="#3b3834" d="M 81.5,404.5 C 81.1667,404.5 80.8333,404.5 80.5,404.5C 79.5,403.167 78.5,403.167 77.5,404.5C 76.234,403.91 74.9007,403.41 73.5,403C 79.1569,402.501 84.8236,402.334 90.5,402.5C 90.6495,403.552 90.4828,404.552 90,405.5C 87.2809,404.556 84.4475,404.223 81.5,404.5 Z"/></g>
<g><path style="opacity:1" fill="#3e3b36" d="M 149.5,404.5 C 149.167,404.5 148.833,404.5 148.5,404.5C 147.5,403.167 146.5,403.167 145.5,404.5C 144.234,403.91 142.901,403.41 141.5,403C 148.826,402.5 156.159,402.334 163.5,402.5C 163.649,403.552 163.483,404.552 163,405.5C 158.599,404.533 154.099,404.2 149.5,404.5 Z"/></g>
<g><path style="opacity:1" fill="#3b3834" d="M 180.5,404.5 C 180.167,404.5 179.833,404.5 179.5,404.5C 178.5,403.167 177.5,403.167 176.5,404.5C 175.234,403.91 173.901,403.41 172.5,403C 178.157,402.501 183.824,402.334 189.5,402.5C 189.649,403.552 189.483,404.552 189,405.5C 186.281,404.556 183.448,404.223 180.5,404.5 Z"/></g>
<g><path style="opacity:1" fill="#403d38" d="M 264.5,404.5 C 263.5,403.167 262.5,403.167 261.5,404.5C 256.156,404.334 250.823,404.501 245.5,405C 243.683,406.8 242.516,408.966 242,411.5C 240.835,407.316 242.335,404.483 246.5,403C 257.161,402.5 267.828,402.333 278.5,402.5C 278.649,403.552 278.483,404.552 278,405.5C 273.599,404.533 269.099,404.2 264.5,404.5 Z"/></g>
<g><path style="opacity:1" fill="#524e48" d="M 330.5,404.5 C 329.167,403.167 327.833,403.167 326.5,404.5C 325.234,403.91 323.901,403.41 322.5,403C 326.5,402.333 330.5,402.333 334.5,403C 333.099,403.41 331.766,403.91 330.5,404.5 Z"/></g>
<g><path style="opacity:1" fill="#131211" d="M 45.5,403.5 C 47.099,403.232 48.4324,403.566 49.5,404.5C 49.3335,415.838 49.5001,427.172 50,438.5C 51.0674,439.191 52.2341,439.691 53.5,440C 49.8333,440.667 46.1667,440.667 42.5,440C 43.7659,439.691 44.9326,439.191 46,438.5C 46.8106,426.757 46.6439,415.091 45.5,403.5 Z"/></g>
<g><path style="opacity:1" fill="#191917" d="M 80.5,404.5 C 80.5,410.167 80.5,415.833 80.5,421.5C 84.7016,421.817 88.7016,421.483 92.5,420.5C 93.1174,420.389 93.6174,420.056 94,419.5C 94.7805,420.944 94.6139,422.277 93.5,423.5C 89.5705,422.567 85.5705,422.234 81.5,422.5C 80.5111,427.975 80.1778,433.642 80.5,439.5C 85.6946,439.821 90.6946,439.487 95.5,438.5C 97.1703,438.249 98.6703,437.582 100,436.5C 100.492,437.549 100.326,438.549 99.5,439.5C 91.5208,440.665 83.5208,440.832 75.5,440C 76,439.5 76.5,439 77,438.5C 77.4999,427.172 77.6665,415.838 77.5,404.5C 78.5,403.167 79.5,403.167 80.5,404.5 Z"/></g>
<g><path style="opacity:1" fill="#11100f" d="M 148.5,404.5 C 148.5,410.167 148.5,415.833 148.5,421.5C 155.022,421.823 161.355,421.49 167.5,420.5C 167.833,420.5 168.167,420.5 168.5,420.5C 168.672,421.492 168.338,422.158 167.5,422.5C 161.167,422.5 154.833,422.5 148.5,422.5C 148.334,427.844 148.501,433.177 149,438.5C 150.067,439.191 151.234,439.691 152.5,440C 148.833,440.667 145.167,440.667 141.5,440C 142.766,439.691 143.933,439.191 145,438.5C 145.5,427.172 145.667,415.838 145.5,404.5C 146.5,403.167 147.5,403.167 148.5,404.5 Z"/></g>
<g><path style="opacity:1" fill="#191917" d="M 179.5,404.5 C 179.5,410.167 179.5,415.833 179.5,421.5C 183.702,421.817 187.702,421.483 191.5,420.5C 192.117,420.389 192.617,420.056 193,419.5C 193.781,420.944 193.614,422.277 192.5,423.5C 188.571,422.567 184.571,422.234 180.5,422.5C 179.511,427.975 179.178,433.642 179.5,439.5C 184.695,439.821 189.695,439.487 194.5,438.5C 196.17,438.249 197.67,437.582 199,436.5C 199.492,437.549 199.326,438.549 198.5,439.5C 190.521,440.665 182.521,440.832 174.5,440C 175,439.5 175.5,439 176,438.5C 176.5,427.172 176.667,415.838 176.5,404.5C 177.5,403.167 178.5,403.167 179.5,404.5 Z"/></g>
<g><path style="opacity:1" fill="#131311" d="M 264.5,404.5 C 264.333,415.838 264.5,427.172 265,438.5C 266.067,439.191 267.234,439.691 268.5,440C 264.833,440.667 261.167,440.667 257.5,440C 258.766,439.691 259.933,439.191 261,438.5C 261.5,427.172 261.667,415.838 261.5,404.5C 262.5,403.167 263.5,403.167 264.5,404.5 Z"/></g>
<g><path style="opacity:1" fill="#181715" d="M 424.5,402.5 C 438.474,399.322 444.64,404.656 443,418.5C 439.252,424.542 434.085,426.042 427.5,423C 426.549,422.282 426.383,421.449 427,420.5C 430.667,424.5 434.333,424.5 438,420.5C 442.615,407.288 438.115,401.955 424.5,404.5C 423.334,415.819 423.168,427.152 424,438.5C 425.067,439.191 426.234,439.691 427.5,440C 423.833,440.667 420.167,440.667 416.5,440C 417.766,439.691 418.933,439.191 420,438.5C 420.667,427.5 420.667,416.5 420,405.5C 418.933,404.809 417.766,404.309 416.5,404C 419.365,403.817 422.031,403.317 424.5,402.5 Z"/></g>
<g><path style="opacity:1" fill="#908a7f" d="M 80.5,404.5 C 80.8333,404.5 81.1667,404.5 81.5,404.5C 81.5,409.833 81.5,415.167 81.5,420.5C 85.1667,420.5 88.8333,420.5 92.5,420.5C 88.7016,421.483 84.7016,421.817 80.5,421.5C 80.5,415.833 80.5,410.167 80.5,404.5 Z"/></g>
<g><path style="opacity:1" fill="#1c1b19" d="M 106.5,403.5 C 113.056,402.154 119.722,402.321 126.5,404C 133.077,409.922 133.077,415.922 126.5,422C 125.062,422.219 123.729,422.719 122.5,423.5C 131.507,434.327 140.34,443.327 149,450.5C 144.57,449.868 140.737,448.035 137.5,445C 130.5,437.333 123.5,429.667 116.5,422C 126.658,421.19 129.825,416.023 126,406.5C 122.078,404.688 117.911,404.021 113.5,404.5C 113.333,415.838 113.5,427.172 114,438.5C 115.067,439.191 116.234,439.691 117.5,440C 113.833,440.667 110.167,440.667 106.5,440C 107.766,439.691 108.933,439.191 110,438.5C 110.667,427.167 110.667,415.833 110,404.5C 108.989,403.663 107.822,403.33 106.5,403.5 Z"/></g>
<g><path style="opacity:1" fill="#908a7f" d="M 179.5,404.5 C 179.833,404.5 180.167,404.5 180.5,404.5C 180.5,409.833 180.5,415.167 180.5,420.5C 184.167,420.5 187.833,420.5 191.5,420.5C 187.702,421.483 183.702,421.817 179.5,421.5C 179.5,415.833 179.5,410.167 179.5,404.5 Z"/></g>
<g><path style="opacity:1" fill="#252421" d="M 49.5,404.5 C 48.4324,403.566 47.099,403.232 45.5,403.5C 47.7469,402.323 52.0802,402.156 58.5,403C 67.4851,405.805 69.6518,411.305 65,419.5C 61.0572,423.518 56.5572,424.351 51.5,422C 61.1208,422.382 64.9541,417.882 63,408.5C 62.5,406.667 61.3333,405.5 59.5,405C 56.1832,404.502 52.8499,404.335 49.5,404.5 Z"/></g>
<g><path style="opacity:1" fill="#1f1e1c" d="M 302.5,402.5 C 306.167,402.5 309.833,402.5 313.5,402.5C 313.662,404.527 313.495,406.527 313,408.5C 309.868,402.756 305.868,402.089 301,406.5C 300.333,408.833 300.333,411.167 301,413.5C 305.015,417.682 309.182,421.682 313.5,425.5C 317.302,434.226 314.469,439.559 305,441.5C 298.477,441.626 295.81,438.626 297,432.5C 299.23,439.463 303.73,441.296 310.5,438C 312.393,435.083 312.893,431.916 312,428.5C 306.667,424.5 302,419.833 298,414.5C 296.309,409.131 297.809,405.131 302.5,402.5 Z"/></g>
<g><path style="opacity:1" fill="#1f1d1c" d="M 239.5,435.5 C 235.849,439.596 231.182,441.596 225.5,441.5C 207.83,438.483 201.664,428.483 207,411.5C 213.55,403.094 222.05,400.261 232.5,403C 234.615,403.557 236.615,404.391 238.5,405.5C 239.641,407.421 239.808,409.421 239,411.5C 233.649,403.719 226.482,401.552 217.5,405C 209.283,409.947 206.45,417.114 209,426.5C 212.616,437.418 220.116,441.585 231.5,439C 234.336,438.079 237.002,436.912 239.5,435.5 Z"/></g>
<g><path style="opacity:1" fill="#22201e" d="M 371.5,410.5 C 370.009,413.186 369.343,416.186 369.5,419.5C 369.505,421.696 369.838,423.696 370.5,425.5C 373.527,436.853 380.86,441.353 392.5,439C 401.108,435.983 405.441,429.816 405.5,420.5C 405.687,409.857 400.521,404.19 390,403.5C 385.217,403.393 381.55,405.393 379,409.5C 379.606,406.54 381.439,404.373 384.5,403C 404.873,401.703 412.373,410.869 407,430.5C 400.034,439.823 390.867,442.989 379.5,440C 365.408,432.798 362.241,422.298 370,408.5C 371.422,406.362 373.255,405.195 375.5,405C 373.561,406.432 372.228,408.265 371.5,410.5 Z"/></g>
<g><path style="opacity:1" fill="#9a9287" d="M 371.5,410.5 C 370.746,415.463 370.413,420.463 370.5,425.5C 369.838,423.696 369.505,421.696 369.5,419.5C 369.343,416.186 370.009,413.186 371.5,410.5 Z"/></g>
<g><path style="opacity:1" fill="#bcb4a5" d="M 148.5,404.5 C 148.833,404.5 149.167,404.5 149.5,404.5C 149.5,409.833 149.5,415.167 149.5,420.5C 155.5,420.5 161.5,420.5 167.5,420.5C 161.355,421.49 155.022,421.823 148.5,421.5C 148.5,415.833 148.5,410.167 148.5,404.5 Z"/></g>
<g><path style="opacity:1" fill="#6f6a61" d="M 167.5,422.5 C 168.338,422.158 168.672,421.492 168.5,420.5C 169.584,418.294 169.751,419.627 169,424.5C 168.283,423.956 167.783,423.289 167.5,422.5 Z"/></g>
<g><path style="opacity:1" fill="#7b766c" d="M 330.5,405.5 C 330.5,410.5 330.5,415.5 330.5,420.5C 337.5,420.5 344.5,420.5 351.5,420.5C 344.352,421.492 337.019,421.825 329.5,421.5C 329.179,415.974 329.512,410.64 330.5,405.5 Z"/></g>
<g><path style="opacity:1" fill="#706b62" d="M 239.5,435.5 C 241.528,432.103 243.028,428.436 244,424.5C 244.702,429.093 243.202,432.759 239.5,435.5 Z"/></g>
<g><path style="opacity:1" fill="#7e796f" d="M 81.5,422.5 C 81.5,427.833 81.5,433.167 81.5,438.5C 86.1667,438.5 90.8333,438.5 95.5,438.5C 90.6946,439.487 85.6946,439.821 80.5,439.5C 80.1778,433.642 80.5111,427.975 81.5,422.5 Z"/></g>
<g><path style="opacity:1" fill="#7e796f" d="M 180.5,422.5 C 180.5,427.833 180.5,433.167 180.5,438.5C 185.167,438.5 189.833,438.5 194.5,438.5C 189.695,439.487 184.695,439.821 179.5,439.5C 179.178,433.642 179.511,427.975 180.5,422.5 Z"/></g>
</svg>
