<?xml version="1.0" encoding="UTF-8"?>
<!DOCTYPE svg PUBLIC "-//W3C//DTD SVG 1.1//EN" "http://www.w3.org/Graphics/SVG/1.1/DTD/svg11.dtd">
<svg xmlns="http://www.w3.org/2000/svg" version="1.1" width="511px" height="508px" style="shape-rendering:geometricPrecision; text-rendering:geometricPrecision; image-rendering:optimizeQuality; fill-rule:evenodd; clip-rule:evenodd" xmlns:xlink="http://www.w3.org/1999/xlink">
<g><path style="opacity:1" fill="#000000" d="M 1.5,-0.5 C 170.5,-0.5 339.5,-0.5 508.5,-0.5C 508.5,168.5 508.5,337.5 508.5,506.5C 339.5,506.5 170.5,506.5 1.5,506.5C 1.5,337.5 1.5,168.5 1.5,-0.5 Z"/></g>
<g><path style="opacity:1" fill="#e4e5e9" d="M -0.5,-0.5 C 0.166667,-0.5 0.833333,-0.5 1.5,-0.5C 1.5,168.5 1.5,337.5 1.5,506.5C 1.5,506.833 1.5,507.167 1.5,507.5C 0.833333,507.5 0.166667,507.5 -0.5,507.5C -0.5,338.167 -0.5,168.833 -0.5,-0.5 Z"/></g>
<g><path style="opacity:1" fill="#c8c9cc" d="M 508.5,-0.5 C 509.167,-0.5 509.833,-0.5 510.5,-0.5C 510.5,168.833 510.5,338.167 510.5,507.5C 340.833,507.5 171.167,507.5 1.5,507.5C 1.5,507.167 1.5,506.833 1.5,506.5C 170.5,506.5 339.5,506.5 508.5,506.5C 508.5,337.5 508.5,168.5 508.5,-0.5 Z"/></g>
<g><path style="opacity:1" fill="#572d02" d="M 159.5,66.5 C 227.455,68.1598 295.455,69.1598 363.5,69.5C 295.5,69.5 227.5,69.5 159.5,69.5C 159.5,68.5 159.5,67.5 159.5,66.5 Z"/></g>
<g><path style="opacity:1" fill="#e77809" d="M 159.5,66.5 C 159.5,67.5 159.5,68.5 159.5,69.5C 227.5,69.5 295.5,69.5 363.5,69.5C 375.882,72.242 380.715,79.9086 378,92.5C 368.332,119.845 358.665,147.178 349,174.5C 344.908,180.245 339.408,184.078 332.5,186C 270.149,190.434 207.816,195.101 145.5,200C 141.371,202.631 140.538,206.131 143,210.5C 144.113,211.305 145.279,211.972 146.5,212.5C 177.997,213.332 209.664,213.832 241.5,214C 236.63,218.702 231.963,223.535 227.5,228.5C 198.831,228.667 170.165,228.5 141.5,228C 125.938,220.698 121.771,209.198 129,193.5C 136.818,184.683 146.651,181.017 158.5,182.5C 152.996,137.806 147.163,93.1393 141,48.5C 139.457,46.6217 137.624,45.1217 135.5,44C 128.167,43.6667 120.833,43.3333 113.5,43C 108.931,40.4586 107.431,36.6253 109,31.5C 110.214,29.9512 111.714,28.7845 113.5,28C 144.936,21.9519 160.269,34.7852 159.5,66.5 Z"/></g>
<g><path style="opacity:1" fill="#010000" d="M 162.5,85.5 C 229.167,85.5 295.833,85.5 362.5,85.5C 355.977,106.255 349.144,126.921 342,147.5C 339.739,154.627 336.906,161.46 333.5,168C 329.768,169.969 325.768,170.969 321.5,171C 272.475,174.236 223.475,177.736 174.5,181.5C 170.828,149.461 166.828,117.461 162.5,85.5 Z"/></g>
<g><path style="opacity:1" fill="#d3975e" d="M 260.5,160.5 C 258.167,161.833 255.833,161.833 253.5,160.5C 254.978,159.03 256.311,157.363 257.5,155.5C 258.001,157.655 259.001,159.322 260.5,160.5 Z"/></g>
<g><path style="opacity:1" fill="#eaa867" d="M 264.5,152.5 C 265.226,156.26 263.893,158.927 260.5,160.5C 260.337,158.143 260.503,155.81 261,153.5C 262.011,152.663 263.178,152.33 264.5,152.5 Z"/></g>
<g><path style="opacity:1" fill="#db730f" d="M 221.5,144.5 C 221.809,149.267 221.309,153.934 220,158.5C 218.266,160.451 216.099,161.451 213.5,161.5C 213.761,154.648 216.427,148.981 221.5,144.5 Z"/></g>
<g><path style="opacity:1" fill="#efb478" d="M 221.5,142.5 C 221.5,143.167 221.5,143.833 221.5,144.5C 216.427,148.981 213.761,154.648 213.5,161.5C 211.901,161.768 210.568,161.434 209.5,160.5C 210.138,154.123 212.804,148.623 217.5,144C 218.745,143.209 220.078,142.709 221.5,142.5 Z"/></g>
<g><path style="opacity:1" fill="#e4780f" d="M 221.5,142.5 C 220.078,142.709 218.745,143.209 217.5,144C 212.804,148.623 210.138,154.123 209.5,160.5C 207.827,159.657 206.66,158.324 206,156.5C 205.333,139.5 205.333,122.5 206,105.5C 209.385,101.184 213.552,100.35 218.5,103C 219.701,103.903 220.535,105.069 221,106.5C 221.5,118.495 221.667,130.495 221.5,142.5 Z"/></g>
<g><path style="opacity:1" fill="#e5770a" d="M 264.5,152.5 C 263.178,152.33 262.011,152.663 261,153.5C 260.503,155.81 260.337,158.143 260.5,160.5C 259.001,159.322 258.001,157.655 257.5,155.5C 256.311,157.363 254.978,159.03 253.5,160.5C 251.496,159.327 249.996,157.66 249,155.5C 248.333,139.5 248.333,123.5 249,107.5C 253.05,100.226 258.05,99.5589 264,105.5C 264.5,121.163 264.667,136.83 264.5,152.5 Z"/></g>
<g><path style="opacity:1" fill="#e8790b" d="M 297.5,101.5 C 302.152,100.984 305.652,102.651 308,106.5C 308.667,123.167 308.667,139.833 308,156.5C 305.459,161.069 301.625,162.569 296.5,161C 294.951,159.786 293.785,158.286 293,156.5C 292.333,139.833 292.333,123.167 293,106.5C 294.025,104.313 295.525,102.646 297.5,101.5 Z"/></g>
<g><path style="opacity:1" fill="#cc6d12" d="M 146.5,212.5 C 209.669,212.168 272.669,212.501 335.5,213.5C 324.147,213.168 312.814,213.501 301.5,214.5C 305.855,219.187 310.188,223.854 314.5,228.5C 313.833,228.5 313.167,228.5 312.5,228.5C 307.827,223.494 303.16,218.494 298.5,213.5C 293.146,218.188 288.146,223.188 283.5,228.5C 282.833,228.5 282.167,228.5 281.5,228.5C 285.963,223.535 290.63,218.702 295.5,214C 279.167,213.333 262.833,213.333 246.5,214C 251.37,218.702 256.037,223.535 260.5,228.5C 259.833,228.5 259.167,228.5 258.5,228.5C 253.855,223.52 249.188,218.52 244.5,213.5C 239.146,218.188 234.146,223.188 229.5,228.5C 228.833,228.5 228.167,228.5 227.5,228.5C 231.963,223.535 236.63,218.702 241.5,214C 209.664,213.832 177.997,213.332 146.5,212.5 Z"/></g>
<g><path style="opacity:1" fill="#ec7907" d="M 281.5,228.5 C 274.5,228.5 267.5,228.5 260.5,228.5C 256.037,223.535 251.37,218.702 246.5,214C 262.833,213.333 279.167,213.333 295.5,214C 290.63,218.702 285.963,223.535 281.5,228.5 Z"/></g>
<g><path style="opacity:1" fill="#eb7907" d="M 258.5,228.5 C 248.833,228.5 239.167,228.5 229.5,228.5C 234.146,223.188 239.146,218.188 244.5,213.5C 249.188,218.52 253.855,223.52 258.5,228.5 Z"/></g>
<g><path style="opacity:1" fill="#eb7906" d="M 312.5,228.5 C 302.833,228.5 293.167,228.5 283.5,228.5C 288.146,223.188 293.146,218.188 298.5,213.5C 303.16,218.494 307.827,223.494 312.5,228.5 Z"/></g>
<g><path style="opacity:1" fill="#e77708" d="M 335.5,213.5 C 351.688,215.683 362.021,224.683 366.5,240.5C 364.965,248.432 360.631,250.765 353.5,247.5C 350.952,240.559 346.619,235.059 340.5,231C 338.754,230.529 337.087,229.862 335.5,229C 328.508,228.5 321.508,228.334 314.5,228.5C 310.188,223.854 305.855,219.187 301.5,214.5C 312.814,213.501 324.147,213.168 335.5,213.5 Z"/></g>
<g><path style="opacity:1" fill="#e67709" d="M 190.5,235.5 C 212.068,236.894 221.234,248.228 218,269.5C 208.772,287.576 195.272,291.743 177.5,282C 163.369,266.532 164.369,252.199 180.5,239C 183.85,237.514 187.184,236.347 190.5,235.5 Z"/></g>
<g><path style="opacity:1" fill="#e5770a" d="M 311.5,235.5 C 330.817,236.314 340.317,246.314 340,265.5C 335.857,281.159 325.69,288.325 309.5,287C 293.335,281.508 286.835,270.341 290,253.5C 293.764,243.22 300.931,237.22 311.5,235.5 Z"/></g>
<g><path style="opacity:1" fill="#0b0400" d="M 190.5,251.5 C 201.391,252.318 204.891,257.652 201,267.5C 192.641,273.418 186.807,271.418 183.5,261.5C 184.304,257.04 186.637,253.707 190.5,251.5 Z"/></g>
<g><path style="opacity:1" fill="#090300" d="M 311.5,251.5 C 320.721,251.547 324.721,256.047 323.5,265C 322.513,267.321 320.846,268.987 318.5,270C 308.387,271.888 304.221,267.721 306,257.5C 307.36,254.977 309.193,252.977 311.5,251.5 Z"/></g>
<g><path style="opacity:1" fill="#f7f3ec" d="M 152.5,311.5 C 157.844,311.334 163.177,311.501 168.5,312C 173.224,314.435 174.724,318.269 173,323.5C 171.773,325.726 169.939,327.226 167.5,328C 164.183,328.498 160.85,328.665 157.5,328.5C 157.5,331.833 157.5,335.167 157.5,338.5C 155.833,338.5 154.167,338.5 152.5,338.5C 152.5,329.5 152.5,320.5 152.5,311.5 Z"/></g>
<g><path style="opacity:1" fill="#f0ece8" d="M 184.5,311.5 C 190.833,311.5 197.167,311.5 203.5,311.5C 203.67,312.822 203.337,313.989 202.5,315C 198.514,315.499 194.514,315.666 190.5,315.5C 190.5,317.833 190.5,320.167 190.5,322.5C 194.5,322.5 198.5,322.5 202.5,322.5C 202.5,323.833 202.5,325.167 202.5,326.5C 198.5,326.5 194.5,326.5 190.5,326.5C 190.5,329.167 190.5,331.833 190.5,334.5C 194.514,334.334 198.514,334.501 202.5,335C 203.337,336.011 203.67,337.178 203.5,338.5C 197.242,338.81 191.076,338.476 185,337.5C 184.5,328.84 184.334,320.173 184.5,311.5 Z"/></g>
<g><path style="opacity:1" fill="#efe9e3" d="M 214.5,311.5 C 220.176,311.334 225.843,311.501 231.5,312C 236.143,314.072 237.643,317.572 236,322.5C 234.773,324.726 232.939,326.226 230.5,327C 234.252,330.007 236.252,333.84 236.5,338.5C 235.127,338.657 233.793,338.49 232.5,338C 230.5,335 228.5,332 226.5,329C 224.655,327.872 222.655,327.372 220.5,327.5C 220.665,330.85 220.498,334.183 220,337.5C 218.333,338.833 216.667,338.833 215,337.5C 214.5,328.84 214.334,320.173 214.5,311.5 Z"/></g>
<g><path style="opacity:1" fill="#f3f4f0" d="M 248.5,311.5 C 254.509,311.334 260.509,311.501 266.5,312C 267.833,313 267.833,314 266.5,315C 262.179,315.499 257.846,315.666 253.5,315.5C 253.5,317.833 253.5,320.167 253.5,322.5C 257.514,322.334 261.514,322.501 265.5,323C 266.337,324.011 266.67,325.178 266.5,326.5C 262.167,326.5 257.833,326.5 253.5,326.5C 253.5,330.5 253.5,334.5 253.5,338.5C 251.856,338.714 250.356,338.38 249,337.5C 248.5,328.84 248.334,320.173 248.5,311.5 Z"/></g>
<g><path style="opacity:1" fill="#f3f4f0" d="M 277.5,311.5 C 283.833,311.5 290.167,311.5 296.5,311.5C 296.67,312.822 296.337,313.989 295.5,315C 291.179,315.499 286.846,315.666 282.5,315.5C 282.5,317.833 282.5,320.167 282.5,322.5C 286.514,322.334 290.514,322.501 294.5,323C 295.337,324.011 295.67,325.178 295.5,326.5C 291.167,326.5 286.833,326.5 282.5,326.5C 282.5,329.167 282.5,331.833 282.5,334.5C 286.846,334.334 291.179,334.501 295.5,335C 296.337,336.011 296.67,337.178 296.5,338.5C 290.242,338.81 284.076,338.476 278,337.5C 277.5,328.84 277.334,320.173 277.5,311.5 Z"/></g>
<g><path style="opacity:1" fill="#ede8e3" d="M 314.5,311.5 C 319.734,310.835 324.568,311.835 329,314.5C 329.551,316.353 328.885,317.687 327,318.5C 314.592,312.893 309.925,316.893 313,330.5C 317.132,335.51 321.799,335.844 327,331.5C 330.451,334.807 329.618,336.973 324.5,338C 309.666,339.826 303.832,333.326 307,318.5C 308.742,315.254 311.242,312.921 314.5,311.5 Z"/></g>
<g><path style="opacity:1" fill="#ede9e2" d="M 337.5,311.5 C 345.5,311.5 353.5,311.5 361.5,311.5C 361.67,312.822 361.337,313.989 360.5,315C 357.854,315.497 355.187,315.664 352.5,315.5C 352.666,322.841 352.5,330.174 352,337.5C 350.333,338.833 348.667,338.833 347,337.5C 346.5,330.174 346.334,322.841 346.5,315.5C 343.813,315.664 341.146,315.497 338.5,315C 337.663,313.989 337.33,312.822 337.5,311.5 Z"/></g>
<g><path style="opacity:1" fill="#170d11" d="M 157.5,315.5 C 160.518,315.335 163.518,315.502 166.5,316C 169.25,319.012 168.917,321.679 165.5,324C 162.854,324.497 160.187,324.664 157.5,324.5C 157.5,321.5 157.5,318.5 157.5,315.5 Z"/></g>
<g><path style="opacity:1" fill="#040208" d="M 220.5,315.5 C 223.518,315.335 226.518,315.502 229.5,316C 230.833,318.333 230.833,320.667 229.5,323C 226.518,323.498 223.518,323.665 220.5,323.5C 220.5,320.833 220.5,318.167 220.5,315.5 Z"/></g>
<g><path style="opacity:1" fill="#d9d2c7" d="M 207.5,351.5 C 210.249,351.274 212.916,351.607 215.5,352.5C 217.176,357.09 215.51,359.09 210.5,358.5C 210.5,359.5 210.5,360.5 210.5,361.5C 209.5,361.5 208.5,361.5 207.5,361.5C 207.5,358.167 207.5,354.833 207.5,351.5 Z"/></g>
<g><path style="opacity:1" fill="#ecede4" d="M 220.5,351.5 C 223.119,351.232 225.619,351.565 228,352.5C 229.509,357.493 227.675,359.493 222.5,358.5C 222.719,359.675 222.386,360.675 221.5,361.5C 220.513,358.232 220.18,354.898 220.5,351.5 Z"/></g>
<g><path style="opacity:1" fill="#f3d3a1" d="M 233.5,351.5 C 234.777,352.694 235.444,354.36 235.5,356.5C 235.167,358.167 234.833,359.833 234.5,361.5C 233.513,358.232 233.18,354.898 233.5,351.5 Z"/></g>
<g><path style="opacity:1" fill="#dbdddc" d="M 285.5,351.5 C 288.247,351.187 290.914,351.52 293.5,352.5C 291.833,353.167 290.167,353.833 288.5,354.5C 293.833,355.833 293.833,357.167 288.5,358.5C 290.167,359.167 291.833,359.833 293.5,360.5C 290.914,361.48 288.247,361.813 285.5,361.5C 285.5,358.167 285.5,354.833 285.5,351.5 Z"/></g>
<g><path style="opacity:1" fill="#e7ebe2" d="M 309.5,351.5 C 312.572,351.183 315.572,351.516 318.5,352.5C 317.675,353.386 316.675,353.719 315.5,353.5C 314.833,364.167 314.167,364.167 313.5,353.5C 311.517,353.843 310.183,353.176 309.5,351.5 Z"/></g>
<g><path style="opacity:1" fill="#efeae0" d="M 322.5,351.5 C 324.924,351.192 327.257,351.526 329.5,352.5C 322.833,353.833 322.833,355.167 329.5,356.5C 322.833,357.833 322.833,359.167 329.5,360.5C 327.257,361.474 324.924,361.808 322.5,361.5C 322.5,358.167 322.5,354.833 322.5,351.5 Z"/></g>
<g><path style="opacity:1" fill="#dad2c5" d="M 333.5,351.5 C 335.857,351.337 338.19,351.503 340.5,352C 341.578,352.674 342.245,353.674 342.5,355C 341.555,357.089 341.555,359.089 342.5,361C 342,361.167 341.5,361.333 341,361.5C 339.832,360.491 338.665,359.491 337.5,358.5C 336.614,359.325 336.281,360.325 336.5,361.5C 335.5,361.5 334.5,361.5 333.5,361.5C 333.5,358.167 333.5,354.833 333.5,351.5 Z"/></g>
<g><path style="opacity:1" fill="#e8e9e2" d="M 195.5,351.5 C 203.486,350.998 205.486,354.165 201.5,361C 193.424,361.805 191.424,358.638 195.5,351.5 Z"/></g>
<g><path style="opacity:1" fill="#dfd8cd" d="M 255.5,351.5 C 258.073,351.148 260.406,351.648 262.5,353C 262,353.5 261.5,354 261,354.5C 256.667,352.5 255,353.833 256,358.5C 257.011,359.337 258.178,359.67 259.5,359.5C 259.5,358.5 259.5,357.5 259.5,356.5C 260.5,356.5 261.5,356.5 262.5,356.5C 262.532,361.213 260.199,362.713 255.5,361C 251.547,357.771 251.547,354.604 255.5,351.5 Z"/></g>
<g><path style="opacity:1" fill="#e6e7e0" d="M 297.5,351.5 C 300.385,352.545 302.552,354.545 304,357.5C 304.192,355.423 304.692,353.423 305.5,351.5C 306.833,354.833 306.833,358.167 305.5,361.5C 303.517,360.018 301.684,358.351 300,356.5C 299.798,358.256 299.298,359.922 298.5,361.5C 297.513,358.232 297.18,354.898 297.5,351.5 Z"/></g>
<g><path style="opacity:1" fill="#1d0f15" d="M 196.5,353.5 C 201.159,353.015 202.492,354.848 200.5,359C 195.728,359.81 194.395,357.977 196.5,353.5 Z"/></g>
<g><path style="opacity:1" fill="#000009" d="M 210.5,353.5 C 211.5,353.5 212.5,353.5 213.5,353.5C 213.5,354.5 213.5,355.5 213.5,356.5C 212.5,356.5 211.5,356.5 210.5,356.5C 210.5,355.5 210.5,354.5 210.5,353.5 Z"/></g>
<g><path style="opacity:1" fill="#28111e" d="M 222.5,353.5 C 223.833,353.5 225.167,353.5 226.5,353.5C 226.5,354.5 226.5,355.5 226.5,356.5C 225.167,356.5 223.833,356.5 222.5,356.5C 222.5,355.5 222.5,354.5 222.5,353.5 Z"/></g>
<g><path style="opacity:1" fill="#000009" d="M 336.5,353.5 C 337.5,353.5 338.5,353.5 339.5,353.5C 339.5,354.5 339.5,355.5 339.5,356.5C 338.5,356.5 337.5,356.5 336.5,356.5C 336.5,355.5 336.5,354.5 336.5,353.5 Z"/></g>
<g><path style="opacity:1" fill="#e5d5c0" d="M 240.5,351.5 C 243.091,352.254 244.924,353.921 246,356.5C 246.494,354.866 246.66,353.199 246.5,351.5C 247.5,351.5 248.5,351.5 249.5,351.5C 249.5,354.833 249.5,358.167 249.5,361.5C 248.448,361.649 247.448,361.483 246.5,361C 245.696,359.229 244.529,357.729 243,356.5C 242.798,358.256 242.298,359.922 241.5,361.5C 240.513,358.232 240.18,354.898 240.5,351.5 Z"/></g>
<g><path style="opacity:1" fill="#ead5bc" d="M 180.5,351.5 C 182.176,352.183 182.843,353.517 182.5,355.5C 183.833,355.5 185.167,355.5 186.5,355.5C 186.5,354.167 186.5,352.833 186.5,351.5C 187.5,351.5 188.5,351.5 189.5,351.5C 189.5,354.833 189.5,358.167 189.5,361.5C 188.5,361.5 187.5,361.5 186.5,361.5C 186.5,360.167 186.5,358.833 186.5,357.5C 185.167,357.5 183.833,357.5 182.5,357.5C 182.762,358.978 182.429,360.311 181.5,361.5C 180.513,358.232 180.18,354.898 180.5,351.5 Z"/></g>
<g><path style="opacity:1" fill="#dad8d4" d="M 275.5,351.5 C 277.467,351.261 279.301,351.594 281,352.5C 281.667,353.167 281.667,353.833 281,354.5C 276.167,352.667 274.667,354.167 276.5,359C 278.207,359.195 279.874,359.195 281.5,359C 282.833,359.667 282.833,360.333 281.5,361C 275.166,362.329 272.332,359.829 273,353.5C 273.995,352.934 274.828,352.267 275.5,351.5 Z"/></g>
<g><path style="opacity:1" fill="#e1e1dc" d="M 169.5,351.5 C 171.5,351.5 173.5,351.5 175.5,351.5C 175.649,352.552 175.483,353.552 175,354.5C 173.506,353.253 172.006,353.253 170.5,354.5C 172.567,355.134 174.4,356.134 176,357.5C 176.749,358.635 176.583,359.635 175.5,360.5C 173.253,361.374 170.92,361.708 168.5,361.5C 168.351,360.448 168.517,359.448 169,358.5C 170.494,359.747 171.994,359.747 173.5,358.5C 168.801,357.993 167.468,355.659 169.5,351.5 Z"/></g>
</svg>
